<svg id="Capa_1" enable-background="new 0 0 500.237 500.237" height="512" viewBox="0 0 500.237 500.237" width="512" xmlns="http://www.w3.org/2000/svg"><g><path d="m500.148 189.127c-5.537-187.157-275.005-256.019-370.674-95.102-37.691 60.789-45.937 134.071-11.69 198.399 8.224 16.109 18.706 30.997 30.914 44.344-10.797 8.82-21.423 17.852-31.951 27.004-25.925 22.708-51.239 46.13-75.909 70.219-12.595 12.324-25.049 24.809-37.223 37.563-12.484 15.079 10.371 34.283 23.046 19.238 32.795-39.156 66.932-77.203 102.671-113.72 9.751-10.051 19.627-19.987 29.52-29.926 54.134 51.653 135.446 75.408 206.993 48.129 14.185-7.063 49.932-15.106 38.216-36.963-4.458-7.005-13.764-9.055-20.752-4.574-8.828 5.619-18.144 10.406-27.83 14.254-91.185 36.834-200.485-24.848-228.803-116.25-15.656-46.322-6.426-97.437 17.075-139.455 27.847-52.937 84.251-87.551 144.027-89.132 136.333-3.209 233.287 114.996 177.592 245.891-2.188 4.356-4.289 10.85-6.716 15.023-4.396 7.54-8.722 17.695 1.576 22.625 10.108 4.293 15.172-5.731 17.955-13.702 3.443-7.745 6.902-16.757 9.559-24.818 8.556-25.306 13.204-52.3 12.404-79.047z"/><path d="m231.137 255.717c-3.605 6.859 4.094 15.272 11.31 11.929 20.296-9.777 37.227-25.683 51.27-43.074 1.573-2.213 3.184-4.393 4.828-6.545 8.117 8.636 16.024 17.451 23.624 26.427 9.903 11.42 18.883 23.566 28.083 35.507 13.865 13.876 35.193-7.118 21.37-21.186-19.22-19.453-39.154-38.839-59.384-57.325 8.325-9.416 17.126-18.415 25.972-27.353 3.424-3.367 7.926-8.201 11.352-11.57 5.268-8.11 24.159-16.623 15.466-27.485-3.909-4.046-10.069-2.89-13.368 1.314-9.951 9.719-20.157 19.064-30.655 28.204-6.89 6.086-17.185 14.69-25.71 21.751-18.684-16.325-37.788-32.141-55.462-49.535-12.139-7.506-23.756 11.73-11.342 18.93 12.303 7.571 23.471 16.809 34.103 26.549 5.88 5.475 11.695 11.076 17.44 16.768-19.08 16.299-37.27 34.329-48.897 56.694z"/></g></svg>