<svg width="1440" height="900" viewBox="0 0 1440 900" fill="none" xmlns="http://www.w3.org/2000/svg">
<g clip-path="url(#clip0)">
<rect width="1440" height="900" fill="white"/>
<g filter="url(#filter0_f)">
<path d="M1407.76 656.781C869.438 704.316 542.952 213.616 447 -37.6765L1514.24 -388C1703.05 -59.5459 1946.09 609.246 1407.76 656.781Z" fill="url(#paint0_radial)"/>
</g>
<g filter="url(#filter1_f)">
<path d="M1132.16 127.984C1375.66 71.4188 1438.84 -468.168 1440 -730.891H1413.65L26.3031 -995L-493 189.679C-366.814 631.478 -50.1017 1512.44 207.262 1501.91C528.966 1488.74 431.9 753.25 431.9 537.665C431.9 322.08 827.791 198.69 1132.16 127.984Z" fill="url(#paint1_radial)"/>
</g>
<g filter="url(#filter2_f)">
<path d="M133.5 670.5C146.3 822.9 26.5 1106.67 -35 1229.5L-25 1242.5L1553.5 1322C1567.17 1132.5 1594.5 720.4 1594.5 588C1594.5 422.5 1391.5 305.5 1150 315C956.8 322.6 895.833 106.5 889.5 -2.5C785.667 37.6667 530.4 135.2 340 204C102 290 117.5 480 133.5 670.5Z" fill="url(#paint2_radial)"/>
</g>
</g>
<defs>
<filter id="filter0_f" x="43" y="-792" width="2097" height="1856" filterUnits="userSpaceOnUse" color-interpolation-filters="sRGB">
<feFlood flood-opacity="0" result="BackgroundImageFix"/>
<feBlend mode="normal" in="SourceGraphic" in2="BackgroundImageFix" result="shape"/>
<feGaussianBlur stdDeviation="202" result="effect1_foregroundBlur"/>
</filter>
<filter id="filter1_f" x="-897" y="-1399" width="2741" height="3305" filterUnits="userSpaceOnUse" color-interpolation-filters="sRGB">
<feFlood flood-opacity="0" result="BackgroundImageFix"/>
<feBlend mode="normal" in="SourceGraphic" in2="BackgroundImageFix" result="shape"/>
<feGaussianBlur stdDeviation="202" result="effect1_foregroundBlur"/>
</filter>
<filter id="filter2_f" x="-219" y="-186.5" width="1997.5" height="1692.5" filterUnits="userSpaceOnUse" color-interpolation-filters="sRGB">
<feFlood flood-opacity="0" result="BackgroundImageFix"/>
<feBlend mode="normal" in="SourceGraphic" in2="BackgroundImageFix" result="shape"/>
<feGaussianBlur stdDeviation="92" result="effect1_foregroundBlur"/>
</filter>
<radialGradient id="paint0_radial" cx="0" cy="0" r="1" gradientUnits="userSpaceOnUse" gradientTransform="translate(1091.5 136) rotate(90) scale(524 644.5)">
<stop stop-color="#3048E0"/>
<stop offset="1" stop-color="#8F54CA"/>
</radialGradient>
<radialGradient id="paint1_radial" cx="0" cy="0" r="1" gradientUnits="userSpaceOnUse" gradientTransform="translate(473.5 253.5) rotate(90) scale(1248.5 966.5)">
<stop stop-color="#E02D6F"/>
<stop offset="1" stop-color="#E8999F"/>
</radialGradient>
<radialGradient id="paint2_radial" cx="0" cy="0" r="1" gradientUnits="userSpaceOnUse" gradientTransform="translate(779.75 659.75) rotate(90) scale(662.25 814.75)">
<stop stop-color="#FBE7C4"/>
<stop offset="1" stop-color="#D67E8C"/>
</radialGradient>
<clipPath id="clip0">
<rect width="1440" height="900" fill="white"/>
</clipPath>
</defs>
</svg>
