<svg width="1440" height="900" viewBox="0 0 1440 900" fill="none" xmlns="http://www.w3.org/2000/svg">
<g clip-path="url(#clip0)">
<rect width="1440" height="900" fill="white"/>
<g filter="url(#filter0_f)">
<path d="M939.872 999.723C258.709 843.587 54.5008 105.591 37.5422 -243.89L1490.94 -251.44C1591.07 230.671 1621.04 1155.86 939.872 999.723Z" fill="url(#paint0_radial)"/>
</g>
<g filter="url(#filter1_f)">
<path d="M949.028 -219.219C1119.13 -402.398 869.436 -884.889 723.324 -1103.24L701.493 -1088.49L-595.96 -530.715L-363.102 741.652C-11.2258 1037.1 744.368 1589.81 951.73 1437.01C1210.93 1246.01 718.784 690.898 598.101 512.256C477.419 333.615 736.396 9.75454 949.028 -219.219Z" fill="url(#paint1_radial)"/>
</g>
<g filter="url(#filter2_f)">
<path d="M285.869 738.626C297.33 875.09 190.065 1129.18 135 1239.17L143.954 1250.81L1557.29 1322C1569.53 1152.32 1594 783.308 1594 664.753C1594 516.559 1412.24 411.793 1196.01 420.3C1023.02 427.105 968.437 233.602 962.766 136C869.798 171.967 641.24 259.301 470.763 320.907C257.665 397.914 271.543 568.046 285.869 738.626Z" fill="url(#paint2_radial)"/>
</g>
</g>
<defs>
<filter id="filter0_f" x="-647" y="-1081.67" width="2814.67" height="2620.47" filterUnits="userSpaceOnUse" color-interpolation-filters="sRGB">
<feFlood flood-opacity="0" result="BackgroundImageFix"/>
<feBlend mode="normal" in="SourceGraphic" in2="BackgroundImageFix" result="shape"/>
<feGaussianBlur stdDeviation="202" result="effect1_foregroundBlur"/>
</filter>
<filter id="filter1_f" x="-1430.27" y="-1726.09" width="3807.54" height="3959.17" filterUnits="userSpaceOnUse" color-interpolation-filters="sRGB">
<feFlood flood-opacity="0" result="BackgroundImageFix"/>
<feBlend mode="normal" in="SourceGraphic" in2="BackgroundImageFix" result="shape"/>
<feGaussianBlur stdDeviation="202" result="effect1_foregroundBlur"/>
</filter>
<filter id="filter2_f" x="-49" y="-48" width="1827" height="1554" filterUnits="userSpaceOnUse" color-interpolation-filters="sRGB">
<feFlood flood-opacity="0" result="BackgroundImageFix"/>
<feBlend mode="normal" in="SourceGraphic" in2="BackgroundImageFix" result="shape"/>
<feGaussianBlur stdDeviation="92" result="effect1_foregroundBlur"/>
</filter>
<radialGradient id="paint0_radial" cx="0" cy="0" r="1" gradientUnits="userSpaceOnUse" gradientTransform="translate(760.333 228.563) rotate(107.991) scale(682.192 833.375)">
<stop stop-color="#3048E0"/>
<stop offset="1" stop-color="#8F54CA"/>
</radialGradient>
<radialGradient id="paint1_radial" cx="0" cy="0" r="1" gradientUnits="userSpaceOnUse" gradientTransform="translate(473.5 253.5) rotate(55.9588) scale(1248.5 966.5)">
<stop stop-color="#E02D6F"/>
<stop offset="1" stop-color="#E8999F"/>
</radialGradient>
<radialGradient id="paint2_radial" cx="0" cy="0" r="1" gradientUnits="userSpaceOnUse" gradientTransform="translate(864.5 729) rotate(90) scale(593 729.5)">
<stop stop-color="#FBE7C4"/>
<stop offset="1" stop-color="#D67E8C"/>
</radialGradient>
<clipPath id="clip0">
<rect width="1440" height="900" fill="white"/>
</clipPath>
</defs>
</svg>
